<svg width="126" height="114" viewBox="0 0 126 114" fill="none" xmlns="http://www.w3.org/2000/svg">
<path fill-rule="evenodd" clip-rule="evenodd" d="M111.879 102.751C120.707 91.9083 126 78.0723 126 63C126 28.2061 97.7939 0 63 0C28.2061 0 0 28.2061 0 63C0 73.4484 2.54352 83.3027 7.0451 91.9775C17.0615 86.9822 37.5315 81.0277 58.5 99.5C66.9077 107.908 92.9268 125.121 111.879 102.751Z" fill="black"/>
<path d="M63 82.544C60.408 82.448 57.88 81.968 55.416 81.104C52.984 80.208 50.84 79.008 48.984 77.504C47.16 75.968 45.832 74.208 45 72.224L51.912 69.248C52.392 70.336 53.256 71.36 54.504 72.32C55.752 73.28 57.192 74.048 58.824 74.624C60.456 75.2 62.104 75.488 63.768 75.488C65.528 75.488 67.176 75.216 68.712 74.672C70.248 74.128 71.496 73.328 72.456 72.272C73.448 71.184 73.944 69.888 73.944 68.384C73.944 66.784 73.4 65.536 72.312 64.64C71.256 63.712 69.912 62.992 68.28 62.48C66.68 61.936 65.048 61.424 63.384 60.944C60.088 60.112 57.144 59.12 54.552 57.968C51.96 56.784 49.912 55.296 48.408 53.504C46.936 51.68 46.2 49.36 46.2 46.544C46.2 43.568 47.016 40.992 48.648 38.816C50.312 36.64 52.488 34.96 55.176 33.776C57.864 32.592 60.744 32 63.816 32C67.688 32 71.224 32.832 74.424 34.496C77.624 36.16 80.008 38.416 81.576 41.264L75.096 45.056C74.552 43.904 73.72 42.896 72.6 42.032C71.48 41.136 70.2 40.432 68.76 39.92C67.32 39.408 65.848 39.136 64.344 39.104C62.488 39.04 60.744 39.28 59.112 39.824C57.512 40.368 56.216 41.2 55.224 42.32C54.264 43.408 53.784 44.768 53.784 46.4C53.784 48 54.296 49.216 55.32 50.048C56.376 50.88 57.736 51.552 59.4 52.064C61.096 52.544 62.936 53.104 64.92 53.744C67.832 54.672 70.552 55.744 73.08 56.96C75.608 58.176 77.64 59.696 79.176 61.52C80.744 63.344 81.512 65.6 81.48 68.288C81.48 71.232 80.6 73.808 78.84 76.016C77.08 78.192 74.792 79.856 71.976 81.008C69.192 82.16 66.2 82.672 63 82.544Z" fill="white"/>
</svg>
