<svg width="211" height="96" viewBox="0 0 211 96" fill="none" xmlns="http://www.w3.org/2000/svg">
<path d="M25.424 73.248C21.808 73.248 18.32 72.688 14.96 71.568C11.6 70.416 8.656 68.784 6.128 66.672C3.632 64.56 1.856 62.048 0.8 59.136L8.336 56.304C8.976 58.096 10.16 59.664 11.888 61.008C13.648 62.32 15.712 63.344 18.08 64.08C20.448 64.816 22.896 65.184 25.424 65.184C28.304 65.184 30.976 64.72 33.44 63.792C35.936 62.832 37.952 61.504 39.488 59.808C41.024 58.112 41.792 56.128 41.792 53.856C41.792 51.52 40.992 49.616 39.392 48.144C37.792 46.64 35.744 45.456 33.248 44.592C30.752 43.696 28.144 43.008 25.424 42.528C20.784 41.76 16.624 40.672 12.944 39.264C9.296 37.824 6.4 35.824 4.256 33.264C2.144 30.704 1.088 27.328 1.088 23.136C1.088 19.232 2.208 15.824 4.448 12.912C6.72 10 9.712 7.744 13.424 6.144C17.136 4.544 21.136 3.744 25.424 3.744C28.976 3.744 32.416 4.304 35.744 5.424C39.104 6.512 42.064 8.112 44.624 10.224C47.184 12.336 49.024 14.912 50.144 17.952L42.512 20.736C41.872 18.912 40.672 17.344 38.912 16.032C37.184 14.688 35.136 13.664 32.768 12.96C30.432 12.224 27.984 11.856 25.424 11.856C22.576 11.824 19.92 12.288 17.456 13.248C14.992 14.208 12.992 15.536 11.456 17.232C9.92 18.928 9.152 20.896 9.152 23.136C9.152 25.824 9.856 27.888 11.264 29.328C12.704 30.736 14.656 31.792 17.12 32.496C19.584 33.2 22.352 33.824 25.424 34.368C29.776 35.104 33.808 36.272 37.52 37.872C41.232 39.44 44.208 41.536 46.448 44.16C48.72 46.784 49.856 50.016 49.856 53.856C49.856 57.76 48.72 61.168 46.448 64.08C44.208 66.992 41.232 69.248 37.52 70.848C33.808 72.448 29.776 73.248 25.424 73.248ZM83.9938 24H92.5378L66.2818 96H57.7378L66.4258 72L49.1938 24H58.0258L70.4578 60.912L83.9938 24ZM137.181 42.144V72H129.117V43.92C129.117 41.488 128.525 39.28 127.341 37.296C126.157 35.312 124.573 33.744 122.589 32.592C120.605 31.408 118.397 30.816 115.965 30.816C113.565 30.816 111.357 31.408 109.341 32.592C107.357 33.744 105.773 35.312 104.589 37.296C103.405 39.28 102.813 41.488 102.813 43.92V72H94.7488V24H102.813V30C104.509 27.76 106.653 25.984 109.245 24.672C111.837 23.328 114.653 22.656 117.693 22.656C121.277 22.656 124.541 23.536 127.485 25.296C130.461 27.024 132.813 29.36 134.541 32.304C136.301 35.248 137.181 38.528 137.181 42.144ZM165.404 32.064H154.508L154.46 72H146.396L146.444 32.064H138.188V24H146.444L146.396 8.928H154.46L154.508 24H165.404V32.064ZM210.201 42.144V72H202.137V43.92C202.137 41.488 201.545 39.28 200.361 37.296C199.177 35.312 197.593 33.744 195.609 32.592C193.625 31.408 191.417 30.816 188.985 30.816C186.585 30.816 184.377 31.408 182.361 32.592C180.377 33.744 178.793 35.312 177.609 37.296C176.425 39.28 175.833 41.488 175.833 43.92V72H167.769V-5.72205e-06H175.833V30C177.529 27.76 179.673 25.984 182.265 24.672C184.857 23.328 187.673 22.656 190.713 22.656C194.297 22.656 197.561 23.536 200.505 25.296C203.481 27.024 205.833 29.36 207.561 32.304C209.321 35.248 210.201 38.528 210.201 42.144Z" fill="black"/>
</svg>
